<svg xmlns="http://www.w3.org/2000/svg" viewBox="0 0 643.88 244"><title>vanillo-logo</title><g id="Layer_2" data-name="Layer 2"><g id="Layer_1-2" data-name="Layer 1"><path d="M223.24,134.36h32V241h-32V231q-11.31,13-31.79,13-21.12,0-36-16.32t-14.93-40q0-23.67,14.93-40t36-16.32q20.48,0,31.79,13Zm-43.73,72.31q7,7,18.34,7t18.35-7q7-7,7-19t-7-19q-7-7-18.35-7t-18.34,7q-7,7-7,19T179.51,206.67Z"/><path d="M334.41,131.37q17.07,0,28.48,11.73t11.41,32.43V241h-32V180.22q0-9.39-5.23-14.4a18.49,18.49,0,0,0-13.33-5q-9.18,0-14.51,5.54t-5.33,16.43V241h-32V134.36h32v10h0Q313.51,131.38,334.41,131.37Z"/><path d="M419.31,119.32a19.16,19.16,0,1,1-27.09-27.09,19.16,19.16,0,1,1,27.09,27.09ZM389.77,241V134.36h32V241Z"/><path d="M438.78,241V85.29h32V241Z"/><path d="M487.55,241V85.29h32V241Z"/><path d="M627.46,227.68Q611,244,587.35,244t-40.1-16.32q-16.43-16.32-16.42-40t16.42-40q16.43-16.32,40.1-16.32t40.11,16.32q16.42,16.32,16.42,40T627.46,227.68Zm-57.6-21.86a25.26,25.26,0,0,0,35,0q7-7,7-18.14t-7-18.13a25.26,25.26,0,0,0-35,0q-7,7-7,18.13T569.86,205.82Z"/><path d="M155.58,64a2.87,2.87,0,0,1-1.18-2A70.86,70.86,0,0,0,13.8,62a2.87,2.87,0,0,1-1.18,2A30.57,30.57,0,0,0,21.94,118L62,241h43.51l40-122.78A30.57,30.57,0,0,0,155.58,64Zm-71,117.51L56.23,106.34a2.74,2.74,0,0,1,3.08.92,30.56,30.56,0,0,0,49-.6,2.81,2.81,0,0,1,3.44-.88Z"/></g></g></svg>